PathFileType	4	(X/Y/Z)	C:/Users/beibeiliu/ov580/test_trc/User2\sequence.31_training_dense_left.trc
DataRate	CameraRate	NumFrames	NumMarkers	Units	OrigDataRate	OrigDataStartFrame	OrigNumFrames
120	120	8	19	mm	120	56	83
Frame#	Time	ThumbCMC			ThumbMCP			ThumbIP			ThumbTip			IndexMCP			IndexPIP			IndexTip			MiddleMCP			MiddlePIP			MiddleTip			RingMCP			RingPIP			RingTip			PinkyMCP			PinkyPIP			PinkyTip			BackHand1			BackHand2			BackHand3	
		X0	Y0	Z0	X1	Y1	Z1	X2	Y2	Z2	X3	Y3	Z3	X4	Y4	Z4	X5	Y5	Z5	X6	Y6	Z6	X7	Y7	Z7	X8	Y8	Z8	X9	Y9	Z9	X10	Y10	Z10	X11	Y11	Z11	X12	Y12	Z12	X13	Y13	Z13	X14	Y14	Z14	X15	Y15	Z15	X16	Y16	Z16	X17	Y17	Z17	X18	Y18	Z18	
55	0.458333	-223.548	69.7318	-11.512	-223.218	86.409	-40.3062	-217.792	96.6944	-70.4294	-213.59	107.823	-95.6479	-207.196	42.7977	-86.1583	-199.215	47.2351	-115.726	-190.156	50.219	-141.763	-176.266	31.1867	-87.1796	-154	42.5114	-110.311	-129.306	51.2811	-124.034	-155.344	30.1506	-70.1944	-128.782	48.1758	-81.566	-113.05	66.2505	-90.0657	-139.028	31.0331	-47.3253	-129.774	54.9883	-47.5095	-115.694	82.6499	-43.9774	-193.262	9.45667	-23.6534	-205.281	9.67179	6.8677	-225.281	30.7006	-16.1095	
56	0.466667	-223.124	69.4426	-15.5652	-223.214	85.4668	-42.2325	-219.685	96.4515	-74.7176	-213.105	105.529	-96.031	-204.269	43.1066	-90.7344	-195.952	47.771	-116.818	-186.091	50.541	-141.29	-171.032	30.2697	-89.4618	-146.636	40.8464	-109.345	-120.647	51.4947	-124.928	-150.995	30.1737	-69.3212	-125.431	49.5396	-78.8493	-109.037	71.5013	-88.0167	-140.356	29.8684	-46.2363	-129.059	55.1825	-43.4997	-117.475	82.3565	-37.6453	-187.472	5.17594	-27.5913	-202.695	6.38665	9.00264	-221.351	32.7153	-21.7677	
57	0.475	-221.737	66.5526	-15.6059	-221.69	79.7052	-43.7168	-215.59	87.8342	-79.2514	-210.43	96.3112	-100.774	-199.445	40.7245	-96.3576	-189.047	42.0004	-120.838	-178.547	46.2946	-146.724	-166.784	27.1599	-91.0615	-145.932	37.3096	-108.376	-117.041	52.0739	-127.22	-144.649	33.0004	-73.1655	-125.594	50.8477	-80.2029	-109.462	71.5801	-84.1782	-136.135	31.0494	-46.2271	-124.562	58.7943	-40.5068	-118.058	81.6616	-36.1106	-184.349	5.41614	-27.0133	-202.986	7.90698	3.06722	-219.374	28.1371	-22.7256	
58	0.483333	-225.433	64.5087	-21.1404	-222.188	74.3643	-49.564	-220.371	83.1105	-81.6	-213.724	89.0343	-108.015	-197.577	34.8127	-96.7012	-187.153	37.0154	-122.437	-173.386	40.1542	-152.065	-165.119	24.0318	-91.1091	-139.803	38.3383	-113.685	-115.771	51.8785	-130.151	-143.551	30.262	-71.8844	-123.233	53.3498	-76.8244	-110.283	75.974	-79.7303	-133.686	31.3325	-47.1714	-128.296	57.9148	-42.1397	-123.394	85.3575	-34.2859	-184.544	4.80849	-33.46	-199.021	4.99361	2.42256	-216.92	23.3674	-27.6854	
59	0.491667	-224.804	62.7906	-22.8518	-222.072	71.5602	-52.318	-220.74	79.0351	-84.8965	-213.065	83.5436	-110.778	-195.614	33.3547	-102.897	-186.281	37.0459	-129.118	-171.74	37.2967	-149.27	-159.917	23.6388	-94.6529	-140.669	36.8739	-112.618	-112.693	51.0682	-126.354	-139.091	34.0627	-71.9211	-123.578	58.9658	-74.4671	-107.492	85.2933	-72.5152	-133.699	29.7612	-46.8523	-126.472	62.1918	-39.1133	-127.987	83.512	-31.6518	-179.912	0.522856	-28.8658	-196.104	1.66273	0.766447	-217.832	23.5424	-30.4355	
60	0.5	-225.207	62.1154	-22.4408	-222.941	69.728	-50.8276	-223.414	77.0356	-88.4642	-217.163	81.1913	-109.578	-193.628	32.9921	-96.0476	-182.153	34.4481	-123.349	-165.521	36.6919	-151.454	-161.782	27.7382	-94.1184	-138.085	40.0347	-108.391	-111.807	59.5579	-126.183	-138.678	35.7249	-68.6686	-121.535	60.7104	-67.0309	-113.379	88.1248	-63.4024	-133.997	32.8341	-46.1853	-126.728	60.5799	-36.334	-126.912	85.1473	-27.5758	-179.988	3.106	-33.2813	-197.888	4.81502	2.12025	-212.35	22.2906	-27.7213	
61	0.508333	-228.909	61.925	-22.1685	-230.293	69.7913	-50.0968	-231.559	76.188	-83.7351	-229.298	81.1577	-110.131	-191.587	33.2583	-93.813	-178.971	36.1134	-121.358	-165.708	41.9573	-147.032	-159.612	33.357	-90.0774	-134.408	49.0776	-103.599	-111.115	68.4608	-115.662	-139.494	37.1599	-62.1629	-125.587	65.0141	-61.9958	-114.79	93.4381	-51.572	-131.966	36.1276	-41.1845	-129.872	65.1128	-32.4299	-136.381	87.9955	-21.3358	-180.114	4.13215	-30.5273	-198.468	5.85861	1.04428	-220.64	24.8798	-26.9141	
62	0.516667	-233.377	63.3004	-18.9274	-235.781	68.2601	-50.4401	-237.89	74.4631	-79.5972	-237.429	78.528	-107.756	-193.083	37.5194	-95.5821	-180.967	41.1344	-118.186	-160.102	46.1883	-143.026	-163.509	36.7874	-85.5075	-138.41	56.8398	-99.9132	-112.3	73.4384	-106.16	-142.754	41.763	-59.9437	-130.697	67.0161	-59.1027	-120.876	97.7158	-45.7	-137.485	36.6505	-39.7143	-132.986	65.8362	-29.555	-138.193	91.345	-16.3854	-189.374	6.37317	-25.7354	-205.501	9.22145	2.75285	-222.211	27.0147	-25.6526	
